<svg width="14" height="10" viewBox="0 0 14 10" fill="none" xmlns="http://www.w3.org/2000/svg">
<path d="M4.20117 0.46875H5.95898V6.375C5.95898 6.91797 5.83789 7.39844 5.5957 7.81641C5.35742 8.23047 5.01953 8.55078 4.58203 8.77734C4.14453 9.00391 3.65039 9.11719 3.09961 9.11719C2.19727 9.11719 1.49414 8.88867 0.990234 8.43164C0.486328 7.9707 0.234375 7.32031 0.234375 6.48047H2.00391C2.00391 6.89844 2.0918 7.20703 2.26758 7.40625C2.44336 7.60547 2.7207 7.70508 3.09961 7.70508C3.43555 7.70508 3.70312 7.58984 3.90234 7.35938C4.10156 7.12891 4.20117 6.80078 4.20117 6.375V0.46875ZM11.8887 6.76172C11.8887 6.42969 11.7715 6.17578 11.5371 6C11.3027 5.82031 10.8809 5.63281 10.2715 5.4375C9.66211 5.23828 9.17969 5.04297 8.82422 4.85156C7.85547 4.32812 7.37109 3.62305 7.37109 2.73633C7.37109 2.27539 7.5 1.86523 7.75781 1.50586C8.01953 1.14258 8.39258 0.859375 8.87695 0.65625C9.36523 0.453125 9.91211 0.351562 10.5176 0.351562C11.127 0.351562 11.6699 0.462891 12.1465 0.685547C12.623 0.904297 12.9922 1.21484 13.2539 1.61719C13.5195 2.01953 13.6523 2.47656 13.6523 2.98828H11.8945C11.8945 2.59766 11.7715 2.29492 11.5254 2.08008C11.2793 1.86133 10.9336 1.75195 10.4883 1.75195C10.0586 1.75195 9.72461 1.84375 9.48633 2.02734C9.24805 2.20703 9.12891 2.44531 9.12891 2.74219C9.12891 3.01953 9.26758 3.25195 9.54492 3.43945C9.82617 3.62695 10.2383 3.80273 10.7812 3.9668C11.7812 4.26758 12.5098 4.64062 12.9668 5.08594C13.4238 5.53125 13.6523 6.08594 13.6523 6.75C13.6523 7.48828 13.373 8.06836 12.8145 8.49023C12.2559 8.9082 11.5039 9.11719 10.5586 9.11719C9.90234 9.11719 9.30469 8.99805 8.76562 8.75977C8.22656 8.51758 7.81445 8.1875 7.5293 7.76953C7.24805 7.35156 7.10742 6.86719 7.10742 6.31641H8.87109C8.87109 7.25781 9.43359 7.72852 10.5586 7.72852C10.9766 7.72852 11.3027 7.64453 11.5371 7.47656C11.7715 7.30469 11.8887 7.06641 11.8887 6.76172Z" fill="#CBCB41"/>
</svg>
